<?xml version="1.0" encoding="UTF-8" standalone="no"?>
<!-- Created with Inkscape (http://www.inkscape.org/) -->

<svg
   id="svg2"
   width="573.367pt"
   height="149.18401pt"
   version="1.0"
   sodipodi:docname="2cellColours.svg"
   inkscape:version="1.2 (dc2aedaf03, 2022-05-15)"
   xml:space="preserve"
   xmlns:inkscape="http://www.inkscape.org/namespaces/inkscape"
   xmlns:sodipodi="http://sodipodi.sourceforge.net/DTD/sodipodi-0.dtd"
   xmlns:xlink="http://www.w3.org/1999/xlink"
   xmlns="http://www.w3.org/2000/svg"
   xmlns:svg="http://www.w3.org/2000/svg"
   xmlns:rdf="http://www.w3.org/1999/02/22-rdf-syntax-ns#"
   xmlns:cc="http://creativecommons.org/ns#"
   xmlns:dc="http://purl.org/dc/elements/1.1/"><sodipodi:namedview
     id="namedview8"
     pagecolor="#ffffff"
     bordercolor="#000000"
     borderopacity="0.25"
     inkscape:showpageshadow="2"
     inkscape:pageopacity="0.0"
     inkscape:pagecheckerboard="0"
     inkscape:deskcolor="#d1d1d1"
     inkscape:document-units="pt"
     showgrid="false"
     inkscape:zoom="0.90509668"
     inkscape:cx="495.52717"
     inkscape:cy="34.250485"
     inkscape:window-width="1920"
     inkscape:window-height="1017"
     inkscape:window-x="-8"
     inkscape:window-y="-8"
     inkscape:window-maximized="1"
     inkscape:current-layer="svg2" /><metadata
     id="metadata7"><rdf:RDF><cc:Work
         rdf:about=""><dc:format>image/svg+xml</dc:format><dc:type
           rdf:resource="http://purl.org/dc/dcmitype/StillImage" /></cc:Work></rdf:RDF></metadata><defs
     id="defs5"><linearGradient
       xlink:href="#linearGradient3675"
       id="linearGradient3681"
       x1="114.72217"
       y1="96"
       x2="154.50781"
       y2="96"
       gradientUnits="userSpaceOnUse"
       gradientTransform="matrix(0,-0.59997203,0.90948122,0,-125.75066,184.35682)" /><linearGradient
       id="linearGradient3675"><stop
         style="stop-color:#0000ff;stop-opacity:1;"
         offset="0"
         id="stop3671" /><stop
         style="stop-color:#ff0000;stop-opacity:1;"
         offset="1"
         id="stop3673" /></linearGradient><linearGradient
       xlink:href="#linearGradient3675-3"
       id="linearGradient3681-2"
       x1="114.72217"
       y1="96"
       x2="154.50781"
       y2="96"
       gradientUnits="userSpaceOnUse"
       gradientTransform="matrix(0,0.59997203,-0.90948122,0,229.86918,7.6431751)" /><linearGradient
       id="linearGradient3675-3"><stop
         style="stop-color:#ff0000;stop-opacity:1;"
         offset="0"
         id="stop3671-2" /><stop
         style="stop-color:#0000ff;stop-opacity:1;"
         offset="1"
         id="stop3673-8" /></linearGradient><linearGradient
       xlink:href="#linearGradient3675"
       id="linearGradient3681-4"
       x1="114.72217"
       y1="96"
       x2="154.50781"
       y2="96"
       gradientUnits="userSpaceOnUse"
       gradientTransform="matrix(0,-0.59997203,0.90948122,0,55.248777,184.35682)" /><clipPath
       clipPathUnits="userSpaceOnUse"
       id="clipPath67125"><rect
         style="fill:#00ff00;fill-opacity:0.466216;stroke:none;stroke-width:8.42636;stroke-dasharray:none;stroke-opacity:1"
         id="rect67127"
         width="65.555847"
         height="127.28875"
         x="-142.55899"
         y="-159.64438"
         transform="scale(-1)" /></clipPath><clipPath
       clipPathUnits="userSpaceOnUse"
       id="clipPath56975"><rect
         style="fill:#00ff00;fill-opacity:0.449324;stroke:none;stroke-width:3.77957;stroke-opacity:1"
         id="rect56977"
         width="65.555847"
         height="127.28875"
         x="77.003128"
         y="32.355621" /></clipPath><linearGradient
       xlink:href="#linearGradient3675-3"
       id="linearGradient46273"
       x1="138.83206"
       y1="96.00013"
       x2="159.51738"
       y2="96.00013"
       gradientUnits="userSpaceOnUse" /></defs><text
     xml:space="preserve"
     style="font-size:192px;font-family:Junegull;-inkscape-font-specification:Junegull;text-align:center;text-anchor:middle;fill:#0000ff;fill-opacity:1;stroke-width:2;stroke-linecap:round;stroke-linejoin:round;stroke-dasharray:2, 2;paint-order:markers stroke fill"
     x="-913.90179"
     y="121.53379"
     id="text148042"><tspan
       sodipodi:role="line"
       id="tspan148040"
       x="-913.90179"
       y="121.53379"
       style="stroke-width:2" /></text><text
     xml:space="preserve"
     style="font-size:192px;font-family:Junegull;-inkscape-font-specification:Junegull;text-align:center;text-anchor:middle;fill:#0000ff;fill-opacity:1;stroke-width:2;stroke-linecap:round;stroke-linejoin:round;stroke-dasharray:2, 2;paint-order:markers stroke fill"
     x="-628.84979"
     y="833.05896"
     id="text150425"><tspan
       sodipodi:role="line"
       id="tspan150423"
       x="-628.84979"
       y="833.05896"
       style="stroke-width:2" /></text><rect
     style="fill:#000000;fill-opacity:1;stroke:#333333;stroke-width:27.6973;stroke-linecap:round;stroke-linejoin:miter;stroke-dasharray:none;stroke-opacity:1;paint-order:markers stroke fill"
     id="rect898-7-0-54-2"
     width="171.21475"
     height="171.21474"
     x="13.868517"
     y="13.84865"
     ry="3.9179747e-17" /><path
     d="M 146.46602,133.26821 112.65385,99.45602 146.46602,65.64384 c 3.65049,-3.650474 3.65049,-9.527476 0,-13.17795 -3.65047,-3.650472 -9.52747,-3.650472 -13.17794,0 L 99.475907,86.278072 65.663737,52.46589 c -3.65046,-3.650472 -9.52747,-3.650472 -13.17794,0 -3.65048,3.650474 -3.65048,9.527476 0,13.17795 l 33.81217,33.81218 -33.81217,33.81219 c -3.65048,3.65049 -3.65048,9.52747 0,13.17795 3.65047,3.65047 9.52748,3.65047 13.17794,0 l 33.81217,-33.8122 33.812173,33.8122 c 3.65047,3.65047 9.52747,3.65047 13.17794,0 3.62459,-3.65048 3.62459,-9.55337 0,-13.17795 z"
     id="path16565"
     style="fill:#333333;fill-opacity:1;stroke:none;stroke-width:0.258899" /><rect
     style="fill:#eeeeee;fill-opacity:1;stroke:#333333;stroke-width:27.6973;stroke-linecap:round;stroke-linejoin:miter;stroke-dasharray:none;stroke-opacity:1;paint-order:markers stroke fill"
     id="rect898-7-0-54-2-5"
     width="171.21475"
     height="171.21474"
     x="579.42462"
     y="13.84865"
     ry="3.9179747e-17" /><path
     d="m 712.02214,133.2682 -33.81217,-33.812193 33.81217,-33.81218 c 3.65049,-3.65047 3.65049,-9.52748 0,-13.17795 -3.65047,-3.65047 -9.52747,-3.65047 -13.17794,0 l -33.81217,33.81218 -33.81217,-33.81218 c -3.65046,-3.65047 -9.52747,-3.65047 -13.17794,0 -3.65048,3.65047 -3.65048,9.52748 0,13.17795 l 33.81217,33.81218 -33.81217,33.812193 c -3.65048,3.65049 -3.65048,9.52747 0,13.17795 3.65047,3.65047 9.52748,3.65047 13.17794,0 l 33.81217,-33.8122 33.81217,33.8122 c 3.65047,3.65047 9.52747,3.65047 13.17794,0 3.62459,-3.65048 3.62459,-9.55337 0,-13.17795 z"
     id="path16565-5"
     style="fill:#333333;fill-opacity:1;stroke:none;stroke-width:0.258899" /><rect
     style="fill:#0000ff;fill-opacity:1;stroke:#333333;stroke-width:27.6973;stroke-linecap:round;stroke-linejoin:miter;stroke-dasharray:none;stroke-opacity:1;paint-order:markers stroke fill"
     id="rect898-7-0-54-2-9"
     width="171.21475"
     height="171.21474"
     x="390.90063"
     y="13.84865"
     ry="3.9179747e-17" /><path
     d="m 523.49815,133.26822 -33.81217,-33.812194 33.81217,-33.81218 c 3.65049,-3.65047 3.65049,-9.52747 0,-13.17795 -3.65047,-3.65047 -9.52747,-3.65047 -13.17794,0 l -33.81217,33.81219 -33.81217,-33.81219 c -3.65046,-3.65047 -9.52747,-3.65047 -13.17794,0 -3.65048,3.65048 -3.65048,9.52748 0,13.17795 l 33.81217,33.81218 -33.81217,33.812194 c -3.65048,3.65049 -3.65048,9.52747 0,13.17795 3.65047,3.65047 9.52748,3.65047 13.17794,0 l 33.81217,-33.8122 33.81217,33.8122 c 3.65047,3.65047 9.52747,3.65047 13.17794,0 3.62459,-3.65048 3.62459,-9.55337 0,-13.17795 z"
     id="path16565-8"
     style="fill:#333333;fill-opacity:1;stroke:none;stroke-width:0.258899" /><rect
     style="fill:#ff0000;fill-opacity:1;stroke:#333333;stroke-width:27.6973;stroke-linecap:round;stroke-linejoin:miter;stroke-dasharray:none;stroke-opacity:1;paint-order:markers stroke fill"
     id="rect898-7-0-54-2-4"
     width="171.21475"
     height="171.21474"
     x="202.37398"
     y="13.84865"
     ry="3.9179747e-17" /><path
     d="m 334.97148,133.26821 -33.81217,-33.812188 33.81217,-33.81218 c 3.65049,-3.65048 3.65049,-9.52748 0,-13.17795 -3.65047,-3.65048 -9.52747,-3.65048 -13.17794,0 l -33.81217,33.81218 -33.81217,-33.81218 c -3.65046,-3.65048 -9.52747,-3.65048 -13.17794,0 -3.65048,3.65047 -3.65048,9.52747 0,13.17795 l 33.81217,33.81218 -33.81217,33.812188 c -3.65048,3.65049 -3.65048,9.52747 0,13.17795 3.65047,3.65047 9.52748,3.65047 13.17794,0 l 33.81217,-33.8122 33.81217,33.8122 c 3.65047,3.65047 9.52747,3.65047 13.17794,0 3.62459,-3.65048 3.62459,-9.55337 0,-13.17795 z"
     id="path16565-0"
     style="fill:#333333;fill-opacity:1;stroke:none;stroke-width:0.258899" /></svg>
